<?xml version="1.0" encoding="utf-8"?>
<!-- Generator: Adobe Illustrator 19.2.0, SVG Export Plug-In . SVG Version: 6.00 Build 0)  -->
<svg version="1.1" id="Layer_1" xmlns="http://www.w3.org/2000/svg" xmlns:xlink="http://www.w3.org/1999/xlink" x="0px" y="0px"
	 viewBox="0 0 595.3 841.9" style="enable-background:new 0 0 595.3 841.9;" xml:space="preserve">
<style type="text/css">
	.st0{fill:#C75144;}
	.st1{fill:#B5B3B2;}
	.st2{fill:#805833;}
	.st3{fill:#3A3C3D;}
	.st4{fill:#BA8156;}
	.st5{fill:#F9DAB4;}
	.st6{fill:#EEC4A0;}
	.st7{fill:#C7C2C1;}
	.st8{fill:#F4D4B1;}
	.st9{fill:#3A332D;}
	.st10{fill:#AE3F3C;}
</style>
<g>
	<g>
		<g>
			<g>
				<path class="st0" d="M458.2,427.3c0,0,45.4-30.8,42.6-75.9c0,0-29.7,7-40.2-7c0,0,14.3-3.2,14-20.3c0,0-23.5-1.3-23.9-35.9
					C450.4,253.5,487.2,6.9,286,6.9S121.6,253.5,121.3,288.1S97.4,324,97.4,324c-0.7,17.2,14,20.3,14,20.3c-10.2,13.7-40.2,7-40.2,7
					c-2.7,45.1,42.6,75.9,42.6,75.9c-7.2,6.7-19.8,3.2-19.8,3.2c1.4,71.8,85.3,90.2,85.3,90.2c-5.1,13-20.8,13-20.8,13
					c24.6,74,127.6,58.5,127.6,58.5s103.3,15.6,127.6-58.5c0,0-15.7,0-20.8-13c0,0,83.9-18.4,85.3-90.2
					C478,430.5,465.8,434,458.2,427.3z"/>
			</g>
		</g>
		<g>
			<g>
				<polygon class="st1" points="204.1,820.4 251.9,820.4 287.7,598.9 316.4,820.4 364.4,820.4 356.9,541 217.8,541 				"/>
			</g>
		</g>
		<g>
			<g>
				<path class="st2" d="M327.3,803.8c-11.6,11.4-18.1,23.5,1.7,25.7c18.1,2.2,68.2,10.5,55.9-12.1C373,795.6,359,794,351.1,794
					S333.8,797.8,327.3,803.8z"/>
			</g>
		</g>
		<g>
			<g>
				<path class="st2" d="M241,803.8c11.6,11.4,18.1,23.5-1.7,25.7c-18.1,2.2-68.2,10.5-55.9-12.1c11.9-21.9,25.9-23.5,33.8-23.5
					C224.9,794,234.8,797.8,241,803.8z"/>
			</g>
		</g>
		<g>
			<g>
				<polygon class="st3" points="335.8,545.8 237.2,545.8 236.9,368.8 248.1,362.8 321.5,362.8 335.1,369.1 				"/>
			</g>
		</g>
		<g>
			<g>
				<path class="st4" d="M295.2,384.4h-17.7c-2.7,0-4.8-1.9-4.8-4.4v-7.6c0-2.5,2-4.4,4.8-4.4h17.7c2.7,0,4.8,1.9,4.8,4.4v7.6
					C300,382.2,297.9,384.4,295.2,384.4z"/>
			</g>
		</g>
		<g>
			<g>
				<path class="st4" d="M280.5,376.1h12.3l24.9,146.8c0,0-23.5,36.9-31.4,36.9c-7.8,0-31.4-37.5-31.4-37.5L280.5,376.1z"/>
			</g>
		</g>
		<g>
			<g>
				<path class="st5" d="M398.6,521.3c0,0,6.1,31.5-2.7,50.2c-8.9,18.7-18.4,29.6-29.3,26.1c-10.9-3.8,6.5-23.2,7.5-24.5
					c0,0-5.1,2.2-6.8-1s-3.1-28.9,0.7-43.9L398.6,521.3z"/>
			</g>
		</g>
		<g>
			<g>
				<path class="st6" d="M369.9,578.2c2-2.5,3.8-4.8,3.8-5.1c0,0,5.1-1.6,7.2-10.8C381.2,562.3,384.2,576.3,369.9,578.2z"/>
			</g>
		</g>
		<g>
			<g>
				<path class="st5" d="M174.1,521.3c0,0-6.1,31.5,2.7,50.2c8.9,18.7,18.4,29.6,29.3,26.1c10.9-3.8-6.5-23.2-7.5-24.5
					c0,0,5.1,2.2,6.8-1c1.7-3.2,3.1-28.9-0.7-43.9L174.1,521.3z"/>
			</g>
		</g>
		<g>
			<g>
				<path class="st6" d="M202.8,578.2c-2-2.5-3.8-4.8-3.8-5.1c0,0-5.1-1.6-7.2-10.8C191.5,562.3,188.1,576.3,202.8,578.2z"/>
			</g>
		</g>
		<g>
			<g>
				<g>
					<path class="st7" d="M255.3,365.6c0,0,23.9,23.8,24.6,106.8c0.7,82.9-81.2,99.8-81.2,99.8l3.8-40c-12.6,0.6-29.3-8.6-29.3-8.6
						c0-16.2,33.1-139.2,45.4-150.9c6.5-6.4,21.5-8.9,34.4-9.9L255.3,365.6z"/>
				</g>
			</g>
			<g>
				<g>
					<rect x="217.1" y="515" class="st1" width="32.7" height="9.9"/>
				</g>
			</g>
			<g>
				<g>
					<path class="st1" d="M202.4,532.5l16.4-119.8L196,532.2C198.3,532.2,200.4,532.5,202.4,532.5z"/>
				</g>
			</g>
			<g>
				<g>
					<path class="st1" d="M277.5,431.4c-5.8-44.8-18.8-62-21.5-65.1l0,0l-18.4,28l19.4,5.4l-8.9,12.7L277.5,431.4z"/>
				</g>
			</g>
		</g>
		<g>
			<g>
				<g>
					<path class="st7" d="M317.7,365.6c0,0-23.9,23.8-24.6,106.8c-0.7,83.3,81.2,99.8,81.2,99.8l-3.8-40c12.6,0.6,29.3-8.6,29.3-8.6
						c0-16.2-33.1-139.2-45.4-150.9c-6.5-6.4-21.5-8.9-34.4-9.9L317.7,365.6z"/>
				</g>
			</g>
			<g>
				<g>
					<rect x="323.2" y="515" class="st1" width="32.7" height="9.9"/>
				</g>
			</g>
			<g>
				<g>
					<path class="st1" d="M370.6,532.5l-16.4-119.8l22.9,119.5C374.7,532.2,372.6,532.5,370.6,532.5z"/>
				</g>
			</g>
			<g>
				<g>
					<path class="st1" d="M295.6,431.4c5.8-44.8,18.8-62,21.5-65.1l0,0l18.4,28l-19.4,5.4l8.9,12.7L295.6,431.4z"/>
				</g>
			</g>
		</g>
	</g>
	<g>
		<g>
			<g>
				<path class="st8" d="M176.2,240.8c0,0-16.7-13.3-30.4,0.6c-11.3,11.4-3.1,80.1,57.6,77.9L176.2,240.8z"/>
			</g>
		</g>
		<g>
			<g>
				<path class="st8" d="M395.5,240.8c0,0,16.7-13.3,30.4,0.6c11.3,11.4,3.1,80.1-57.6,77.9L395.5,240.8z"/>
			</g>
		</g>
		<g>
			<g>
				<path class="st5" d="M413.6,194.1c0,98.8-57.3,178.6-127.6,178.6c-70.6,0-127.6-80.1-127.6-178.6
					C158.4,95.5,413.6,95.5,413.6,194.1z"/>
			</g>
		</g>
		<g>
			<g>
				<path class="st9" d="M194.6,262.1c-1.7,0-3.1-1.3-3.1-2.9c0-7.3,4.1-21.3,19.1-21.6c15-0.3,21.8,11.1,23.2,17.2
					c0.3,1.6-0.7,2.9-2.4,3.2s-3.1-0.6-3.4-2.2c0-0.6-3.4-12.7-16.7-12.7c-0.3,0-0.3,0-0.7,0c-13.3,0.3-13.6,15.6-13.6,16.2
					C197.3,260.8,196,262.1,194.6,262.1L194.6,262.1z"/>
			</g>
		</g>
		<g>
			<g>
				<path class="st9" d="M189.5,262.1c-3.1,0-7.5-0.3-12.6-2.2c-1.7-0.6-2.4-1.9-1.7-3.5c0.7-1.6,2-2.2,3.8-1.6
					c8.9,2.9,15,1.3,15,1.3c1.7-0.3,3.1,0.3,3.8,1.9c0.3,1.6-0.3,2.9-2,3.5C194.9,261.4,192.9,262.1,189.5,262.1z"/>
			</g>
		</g>
		<g>
			<g>
				<path class="st9" d="M194.9,256.3c-8.5,0-18.8-7.6-19.1-7.9c-1.4-1-1.4-2.9-0.3-3.8c1-1.3,3.1-1.3,4.1-0.3
					c2.4,1.9,9.9,6.7,15.3,6.7l0,0c1.7,0,3.1,1.3,3.1,2.9C198,255.1,196.6,256.3,194.9,256.3L194.9,256.3z"/>
			</g>
		</g>
		<g>
			<g>
				<path class="st9" d="M378.4,262.1L378.4,262.1c-1.7,0-3.1-1.3-3.1-2.9c0-0.6,0-15.9-13.6-16.2c-14-0.3-17.1,12.4-17.1,12.7
					c-0.3,1.6-2,2.5-3.4,2.2c-1.7-0.3-2.7-1.9-2.4-3.2c1.4-6,8.2-17.5,23.2-17.2c15.3,0.6,19.1,14.3,19.1,21.6
					C381.5,260.8,380.1,262.1,378.4,262.1z"/>
			</g>
		</g>
		<g>
			<g>
				<path class="st9" d="M383.5,262.1c-3.4,0-5.8-0.6-5.8-0.6c-1.7-0.3-2.4-1.9-2-3.5c0.3-1.6,2-2.2,3.8-1.9c0,0,6.1,1.6,15-1.3
					c1.7-0.6,3.1,0.3,3.8,1.6c0.7,1.6-0.3,2.9-1.7,3.5C391.1,261.4,386.6,262.1,383.5,262.1z"/>
			</g>
		</g>
		<g>
			<g>
				<path class="st9" d="M378.1,256.3L378.1,256.3c-1.7,0-3.1-1.3-3.1-2.9c0-1.6,1.4-2.9,3.1-2.9l0,0c5.5,0,13-4.8,15.3-6.7
					c1.4-1,3.1-1,4.1,0.3c1,1.3,1,2.9-0.3,3.8C396.9,248.7,386.6,256.3,378.1,256.3z"/>
			</g>
		</g>
		<g>
			<g>
				<path class="st0" d="M258.7,318.9c0,0,6.8-9.5,14.7-9.2s11.9,7.3,11.9,7.3s7.2-7.3,15.3-7c8.2,0,11.9,9.5,11.9,9.5
					s-8.2,17.8-27.6,17.8C265.5,337.4,258.7,318.9,258.7,318.9z"/>
			</g>
		</g>
		<g>
			<g>
				<path class="st6" d="M272.4,288.1c0,0,1.4-11.1,13-11.4c11.6,0,14,11.4,14,11.4s-6.5-7-13.6-7
					C278.2,281.4,272.4,288.1,272.4,288.1z"/>
			</g>
		</g>
		<g>
			<g>
				<path class="st10" d="M338.9,227.7l0.3-6.4c0-0.6,0.7-1.3,1.4-1.6c7.8-0.6,47.8-3.8,66.5,6.7c0.7,0.3,1,1.3,0.3,2.2l-3.8,5.4
					c-0.3,0.6-1.4,1-2,0.6c-5.5-1.9-28.7-8.9-61.1-5.1C339.9,229.3,338.9,228.4,338.9,227.7z"/>
			</g>
		</g>
		<g>
			<g>
				<path class="st10" d="M232.8,226.8l-0.3-6.4c0-0.6-0.7-1.3-1.4-1.6c-7.8-0.6-47.8-3.2-66.5,7.3c-0.7,0.3-1,1.6-0.3,2.2l3.8,5.4
					c0.3,0.6,1.4,1,2,0.6c5.5-1.9,28.3-9.2,61.1-6C232.1,228.4,232.8,227.7,232.8,226.8z"/>
			</g>
		</g>
		<g>
			<g>
				<path class="st0" d="M161.5,234.7c0,0,147.7-24.5,179.8-62.3c0,0,30,41.6,77.8,38.1V98.7l-277.3,20v68.3L161.5,234.7z"/>
			</g>
		</g>
	</g>
</g>
</svg>
