<?xml version="1.0" encoding="utf-8"?>
<!-- Generator: Adobe Illustrator 19.2.0, SVG Export Plug-In . SVG Version: 6.00 Build 0)  -->
<svg version="1.1" id="Layer_1" xmlns="http://www.w3.org/2000/svg" xmlns:xlink="http://www.w3.org/1999/xlink" x="0px" y="0px"
	 viewBox="0 0 595.3 841.9" style="enable-background:new 0 0 595.3 841.9;" xml:space="preserve">
<style type="text/css">
	.st0{fill:#EA9727;}
	.st1{fill:#F9DAB4;}
	.st2{fill:#805833;}
	.st3{fill:#EEC4A0;}
	.st4{fill:#F4EFED;}
	.st5{fill:#C7C2C1;}
	.st6{fill:#C75144;}
	.st7{fill:#E2DCD9;}
	.st8{fill:#3A3C3D;}
	.st9{fill:#525252;}
	.st10{fill:#626161;}
	.st11{fill:#E08B22;}
	.st12{fill:#F4D4B1;}
	.st13{fill:#3A332D;}
</style>
<g>
	<g>
		<g>
			<g>
				<path class="st0" d="M477.8,403.1c0,0-44-19.4-16.9-225.9c16-121.9-71.2-166.5-165.7-166.5S113.6,55.4,129.6,177.2
					c27.1,206.5-16.9,225.9-16.9,225.9c5.1,12,35,7.3,35,7.3c-4.9,16.8-30.7,18.1-30.7,18.1c30.5,71.2,178.4,65.5,178.4,65.5
					s147.9,5.6,178.4-65.5c0,0-25.9-1.3-30.7-18.1C442.9,410.4,472.8,415.1,477.8,403.1z"/>
			</g>
		</g>
		<g>
			<g>
				<path class="st1" d="M221.3,664.5c0,0,8.2,65.8,8.2,108.4c0,42.6-0.9,60.5,16.3,60.5c20.4,0,18.4-16.8,18.4-60
					c0-43.1,7.3-108.9,7.3-108.9H221.3z"/>
			</g>
		</g>
		<g>
			<g>
				<path class="st2" d="M264,803c-5-2.3-10.6-3.6-16.8-3.6c-6.5,0-12.5,1.5-17.6,4c0.8,20.8,3.8,30,16,30
					C260.5,833.4,263.5,824.5,264,803z"/>
			</g>
		</g>
		<g>
			<g>
				<path class="st1" d="M312.8,664.5c0,0,8.2,65.8,8.2,108.4c0,42.6-0.9,60.5,16.3,60.5c20.4,0,18.4-16.8,18.4-60
					c0-43.1,7.3-108.9,7.3-108.9H312.8z"/>
			</g>
		</g>
		<g>
			<g>
				<path class="st2" d="M355.5,803c-5-2.3-10.6-3.6-16.8-3.6c-6.5,0-12.5,1.5-17.6,4c0.8,20.8,3.8,30,16,30
					C352.1,833.4,355,824.5,355.5,803z"/>
			</g>
		</g>
		<g>
			<g>
				<path class="st1" d="M409.6,474c0.3,8.7-25.3,55.9-26.2,57.5c0,0,6.9,1.9,10.2,5.4c3.3,3.4,7.2,9,5.6,15.6c0,0,4.3-9.2,16.8-3.1
					c12.6,6.1-5.4,31.1-13.1,33.2c-7.7,2.2-34.1,3.6-36.3-18.9c-2.2-22.5-5.5-39-5.5-39s23.1-45.3,22.9-49.7
					c-0.3-4.4-24.8-46.5-24.8-46.5l24.3-8.1C383.6,420.5,409.4,465.3,409.6,474z"/>
			</g>
		</g>
		<g>
			<g>
				<path class="st3" d="M399.2,552.4c0.9-3.8,0-7.2-1.6-10.1c-2.1,9.9-0.2,21.7-0.2,21.7C398.8,561,399.2,552.4,399.2,552.4z"/>
			</g>
		</g>
		<g>
			<g>
				<path class="st1" d="M205.9,422.9c0,0-3.7,92.4-25.2,105.9s-35.8,14.2-39,24.3c-3.2,10.1,25.7,12,36.1,3.7
					c0,0-25.6,37.2-15.7,44.4c9.9,7.1,22.2-19.2,22.2-19.2s-9.4,21.1-2.4,24.6c7,3.5,17.3-18.8,17.3-18.8s-4.8,17.6,1,19.1
					c8.9,2.4,21-24,21-24l5-155.9L205.9,422.9z"/>
			</g>
		</g>
		<g>
			<g>
				<path class="st3" d="M180,556.6c0,0,9.7,12.7,31,10C211,566.7,188.6,577.3,180,556.6z"/>
			</g>
		</g>
		<g>
			<g>
				<rect x="238.5" y="346.6" class="st4" width="110.2" height="107.3"/>
			</g>
		</g>
		<g>
			<g>
				<path class="st5" d="M219.8,542.5c0,0-5.4,109.7-25.9,126.5l0.9,2.5c1.6,4.3,6.8,6,10.8,3.7l3.2-1.9c4.8-2.8,10.8-2.8,15.5,0
					l3.1,1.9c4.8,2.8,10.8,2.8,15.5,0l3.1-1.9c4.8-2.8,10.8-2.8,15.5,0l3.1,1.9c4.8,2.8,10.8,2.8,15.5,0l3.1-1.9
					c4.8-2.8,10.8-2.8,15.5,0l3.1,1.9c4.8,2.8,10.8,2.8,15.5,0l3.1-1.9c4.8-2.8,10.8-2.8,15.5,0l3.1,1.9c4.8,2.8,10.8,2.8,15.5,0
					l3.1-1.9c4.8-2.8,10.8-2.8,15.5,0l5.8,3.4c3,1.8,6.8,1.2,9.3-1.2l3.2-3.3c0,0-21.3-33.9-25.4-129.7H219.8z"/>
			</g>
		</g>
		<g>
			<g>
				<path class="st6" d="M300.4,373.8H286c-2.2,0-3.9-1.7-3.9-3.8v-6.5c0-2.1,1.8-3.8,3.9-3.8h14.3c2.2,0,3.9,1.7,3.9,3.8v6.5
					C304.3,372.1,302.6,373.8,300.4,373.8z"/>
			</g>
		</g>
		<g>
			<g>
				<polygon class="st6" points="288.5,366.8 298.4,366.8 304.3,438.2 293.2,457.4 282.2,437.7 				"/>
			</g>
		</g>
		<g>
			<g>
				<polygon class="st7" points="276.4,379.1 293.3,357.8 310.3,379.1 344.4,353.1 242.8,353.1 				"/>
			</g>
		</g>
		<g>
			<g>
				<path class="st8" d="M225.3,355.9c0,0-30.8,33.7-42.9,68.4c0,0,17.9,9.7,47,12L225.3,355.9z"/>
			</g>
		</g>
		<g>
			<g>
				<path class="st8" d="M361.3,355.9c0,0,30.8,33.7,42.9,68.4c0,0-17.9,9.7-47,12L361.3,355.9z"/>
			</g>
		</g>
		<g>
			<g>
				<path class="st9" d="M360.7,354.6c-1.4-2.7-6.3-4.5-12.9-5.8l-54.5,95.5l-54.5-95.5c-6.6,1.3-11.5,3.2-12.9,5.8
					c-8.8,16.8-6.1,187.9-6.1,187.9h73.4h73.4C366.8,542.5,369.6,371.4,360.7,354.6z"/>
			</g>
		</g>
		<g>
			<g>
				<polygon class="st10" points="240.8,352.3 233.6,407.6 254.7,407.6 252.4,436.2 293.3,444.3 				"/>
			</g>
		</g>
		<g>
			<g>
				<polygon class="st10" points="345.8,352.3 353.1,407.6 331.9,407.6 334.3,436.2 293.3,444.3 				"/>
			</g>
		</g>
		<g>
			<g>
				<path class="st8" d="M293.3,444.3v98.3C293.3,542.5,286,477,293.3,444.3z"/>
			</g>
		</g>
	</g>
	<g>
		<g>
			<g>
				<polygon class="st11" points="441.9,209 440.6,190 449.4,210.8 				"/>
			</g>
		</g>
		<g>
			<g>
				<path class="st12" d="M162.2,222.4c0,0-17.3-24.3-40.5-10.5c-27.5,16.4-1.7,93.6,58.9,89.9L162.2,222.4z"/>
			</g>
		</g>
		<g>
			<g>
				<path class="st12" d="M424,222.4c0,0,17.3-24.3,40.5-10.5c27.5,16.4,1.7,93.6-58.9,89.9L424,222.4z"/>
			</g>
		</g>
		<g>
			<g>
				<path class="st1" d="M294.8,362.4h-2.9c-80.8,0-146.2-63.5-146.2-141.9v-97.2H441v97.2C440.9,298.9,375.5,362.4,294.8,362.4z"/>
			</g>
		</g>
		<g>
			<g>
				<path class="st6" d="M266.7,320.3c0,0,6.5-9.5,14-9c7.5,0.4,11.5,7.4,11.5,7.4s6.7-7.3,14.7-7.1c7.9,0.1,11.3,9.5,11.3,9.5
					s-7.8,17.7-26.5,17.7C272.9,338.8,266.7,320.3,266.7,320.3z"/>
			</g>
		</g>
		<g>
			<g>
				<path class="st13" d="M197.6,254.4c-1.5,0-2.8-1.2-2.9-2.7c0-7.3,3.8-21.2,18.4-21.7c14.2-0.5,20.7,10.9,22.2,17
					c0.3,1.5-0.6,2.9-2.1,3.3c-1.5,0.3-3-0.6-3.4-2.1c-0.2-0.6-3.4-13.2-16.5-12.8c-12.8,0.4-12.9,15.5-12.9,16.2
					C200.4,253.2,199.1,254.4,197.6,254.4L197.6,254.4z"/>
			</g>
		</g>
		<g>
			<g>
				<path class="st0" d="M185.1,218.7c0,0,40.5-6.2,54.8,0l-12.3-12.1C227.7,206.6,191.3,206.6,185.1,218.7z"/>
			</g>
		</g>
		<g>
			<g>
				<path class="st0" d="M401,218.7c0,0-40.5-6.2-54.8,0l12.3-12.1C358.4,206.6,394.7,206.6,401,218.7z"/>
			</g>
		</g>
		<g>
			<g>
				<path class="st13" d="M192.7,254.3c-3,0-7.2-0.4-12.1-2.1c-1.5-0.5-2.3-2.1-1.8-3.5c0.5-1.4,2.1-2.2,3.6-1.7
					c8.6,2.9,14.3,1.4,14.3,1.4c1.5-0.4,3,0.4,3.5,1.9c0.4,1.5-0.4,3-1.9,3.4C198.2,253.7,196.2,254.3,192.7,254.3z"/>
			</g>
		</g>
		<g>
			<g>
				<path class="st13" d="M197.9,248.6c-8.3,0-17.8-7.5-18.2-7.9c-1.2-1-1.3-2.7-0.4-3.9c1-1.2,2.8-1.3,4-0.4l0,0
					c2.4,1.9,9.4,6.6,14.6,6.6c0.1,0,0.1,0,0.2,0c1.5,0,2.8,1.2,2.9,2.7c0,1.5-1.2,2.8-2.8,2.8C198.1,248.6,198,248.6,197.9,248.6z"
					/>
			</g>
		</g>
		<g>
			<g>
				<path class="st13" d="M384.8,254.4L384.8,254.4c-1.6,0-2.9-1.2-2.9-2.8c0-0.6-0.2-15.8-12.9-16.2c-13.2-0.4-16.3,12.2-16.5,12.8
					c-0.3,1.5-1.9,2.4-3.4,2.1c-1.5-0.3-2.4-1.8-2.1-3.3c1.4-6.1,7.9-17.5,22.2-17c14.6,0.5,18.4,14.4,18.4,21.7
					C387.7,253.2,386.4,254.4,384.8,254.4z"/>
			</g>
		</g>
		<g>
			<g>
				<path class="st13" d="M389.7,254.3c-3.5,0-5.5-0.6-5.6-0.6c-1.5-0.4-2.4-1.9-1.9-3.4c0.4-1.4,2-2.3,3.5-1.9
					c0.2,0,5.8,1.5,14.4-1.4c1.5-0.5,3.1,0.3,3.6,1.7c0.5,1.4-0.3,3-1.8,3.5C397,253.9,392.8,254.3,389.7,254.3z"/>
			</g>
		</g>
		<g>
			<g>
				<path class="st13" d="M384.5,248.6c-0.1,0-0.2,0-0.3,0c-1.6,0-2.8-1.3-2.8-2.8s1.3-2.7,2.9-2.7c0.1,0,0.1,0,0.2,0
					c5.2,0,12.3-4.8,14.6-6.6c1.2-1,2.9-0.8,4,0.4s0.8,2.9-0.4,3.9C402.4,241.1,392.8,248.6,384.5,248.6z"/>
			</g>
		</g>
		<g>
			<g>
				<path class="st0" d="M145.6,209.5c0,0,51.6-26.5,62.7-64.1c0,0,23.8,31,89.9,58.2s94.5,15.9,113.2,40.9
					c10.1,13.5,6.1,51.7-12.6,66.3c0,0,50,13.3,42.4-119.3l5.4-73.9L136.1,108L145.6,209.5z"/>
			</g>
		</g>
		<g>
			<g>
				<path class="st11" d="M194.7,122.2c0,0,1.6,22,10.9,30.6c1.1-2.4,1.9-4.8,2.7-7.3C208.3,145.4,200.2,136,194.7,122.2z"/>
			</g>
		</g>
	</g>
</g>
</svg>
