<?xml version="1.0" encoding="utf-8"?>
<!-- Generator: Adobe Illustrator 19.2.0, SVG Export Plug-In . SVG Version: 6.00 Build 0)  -->
<svg version="1.1" id="Layer_1" xmlns="http://www.w3.org/2000/svg" xmlns:xlink="http://www.w3.org/1999/xlink" x="0px" y="0px"
	 viewBox="0 0 595.3 841.9" style="enable-background:new 0 0 595.3 841.9;" xml:space="preserve">
<style type="text/css">
	.st0{fill:#525252;}
	.st1{fill:#E2DCD9;}
	.st2{fill:#4C3626;}
	.st3{fill:#C75144;}
	.st4{fill:#F9DAB4;}
	.st5{fill:#EEC4A0;}
	.st6{fill:#F4EFED;}
	.st7{fill:#F4D4B1;}
	.st8{fill:#3A332D;}
	.st9{fill:#E7DFD9;}
	.st10{fill:#4A4A4A;}
</style>
<g>
	<g>
		<g>
			<g>
				<path class="st0" d="M512.5,354.5c0,0-32.2-0.3-34.1-33.3c-1.1-24.7,48.4-190.1-41.8-269.9c-8.1-7.3-26.8-16.8-43.6-19.3
					c-18.3-2.9-34.4,1.6-34.4,1.6s-4.4-9.2-17.6-15.8c-11.4-5.7-30.8-8.9-43.2-8.9c-266.4,0-178.8,280.1-180.7,312.7
					c-1.5,32.9-34.1,33.3-34.1,33.3c0,27.2,35.2,24.7,35.2,24.7c-0.4,16.8-22.4,24.4-22.4,24.4c11.4,15.2,34.4,6.7,34.4,6.7
					c-46.5,43.1,14.3,30.4,14.3,30.4c-36.3,57,153.5,34.2,153.5,34.2S487.9,498,451.3,441c0,0,60.8,12.4,14.3-30.4
					c0,0,23.1,8.2,34.4-6.7c0,0-22-7.6-22.4-24.4C477.3,379.2,512.9,381.8,512.5,354.5z"/>
			</g>
		</g>
		<g>
			<g>
				<polygon class="st1" points="217.9,819.6 267.7,819.6 298.8,599.1 328.5,819.6 378.7,819.6 385.3,533.2 210.9,533.2 				"/>
			</g>
		</g>
		<g>
			<g>
				<path class="st2" d="M339.9,803.1c-12.1,11.4-18.7,23.4,1.8,25.7c18.7,2.2,71.1,10.5,57.9-12c-12.5-21.9-26.8-23.4-35.2-23.4
					C356,793.3,346.5,797.1,339.9,803.1z"/>
			</g>
		</g>
		<g>
			<g>
				<path class="st2" d="M256.3,803.1c12.1,11.4,18.7,23.4-1.8,25.7c-18.7,2.2-71.1,10.5-57.9-12c12.5-21.9,26.8-23.4,35.2-23.4
					C239.5,793.3,249.7,797.1,256.3,803.1z"/>
			</g>
		</g>
		<g>
			<g>
				<polygon class="st3" points="327.8,547.5 268.8,547.5 268.1,320.9 327.8,320 				"/>
			</g>
		</g>
		<g>
			<g>
				<path class="st4" d="M404.4,536.4c0,0,0,2.9-1.1,4.4c0,0,11,7,8.8,15.8c0,0,4-7.6,15.4-2.5c11.7,5.1-4.8,26.3-12.1,28.2
					s-31.1,3.2-33.3-15.8c-2.2-19-2.9-27.9-2.9-27.9l2.2-13.3L404.4,536.4z"/>
			</g>
		</g>
		<g>
			<g>
				<path class="st5" d="M412.1,556.7c0.7-3.2,0-6-1.5-8.6c-1.8,8.6,0,18.4,0,18.4C411.7,563.9,412.1,556.7,412.1,556.7z"/>
			</g>
		</g>
		<g>
			<g>
				<path class="st6" d="M324.9,329.8l2.6,217.6c36.3,0,60.8-8.6,60.8-8.6l0.4-9.5l15.8,9.5c0,0,45.1-56.1,45.4-75.1
					c0-19-60.8-92.5-79.9-121.7c-9.9-15.2-28.6-20.6-44.7-22.5L324.9,329.8z"/>
			</g>
		</g>
		<g>
			<g>
				<path class="st1" d="M380.9,417.9c5.1,43.4,8.1,111.5,8.1,111.5l6.2,3.8C397.1,488.5,380.9,417.9,380.9,417.9z"/>
			</g>
		</g>
		<g>
			<g>
				<polygon class="st1" points="325.2,342.2 344.3,379.2 331.5,388.1 348,421.1 326.3,431.2 				"/>
			</g>
		</g>
		<g>
			<g>
				<path class="st4" d="M191.8,536.4c0,0,0,2.9,1.1,4.4c0,0-11,7-8.8,15.8c0,0-4-7.6-15.4-2.5c-11.7,5.1,4.8,26.3,12.1,28.2
					c7.3,1.9,31.1,3.2,33.3-15.8c2.2-19,2.9-27.9,2.9-27.9l-2.2-13.3L191.8,536.4z"/>
			</g>
		</g>
		<g>
			<g>
				<path class="st5" d="M184.1,556.7c-0.7-3.2,0-6,1.5-8.6c1.8,8.6,0,18.4,0,18.4C184.5,563.9,184.1,556.7,184.1,556.7z"/>
			</g>
		</g>
		<g>
			<g>
				<path class="st6" d="M271.4,329.8l-2.6,217.6c-36.3,0-60.8-8.6-60.8-8.6l-0.4-9.5l-15.8,9.5c0,0-45.1-56.1-45.4-75.1
					c-0.4-19,60.8-92.5,79.9-121.7c9.9-15.2,28.6-20.6,44.7-22.5L271.4,329.8z"/>
			</g>
		</g>
		<g>
			<g>
				<path class="st1" d="M215.3,417.9c-5.1,43.4-8.1,111.5-8.1,111.5l-6.2,3.8C199.2,488.5,215.3,417.9,215.3,417.9z"/>
			</g>
		</g>
		<g>
			<g>
				<polygon class="st1" points="271,342.2 251.9,379.2 264.8,388.1 248.3,421.1 269.9,431.2 				"/>
			</g>
		</g>
	</g>
	<g>
		<g>
			<g>
				<path class="st7" d="M153.4,223.4c0,0-11-11.1-28.2-7.9c-22,4.1-38.5,54.2,59.4,71.6L153.4,223.4z"/>
			</g>
		</g>
		<g>
			<g>
				<path class="st7" d="M442.9,223.4c0,0,11-11.1,28.2-7.9c22,4.1,38.5,54.2-59.4,71.6L442.9,223.4z"/>
			</g>
		</g>
		<g>
			<g>
				<path class="st4" d="M321.9,339.3l-5.5,1.3c-12.1,2.5-24.9,2.5-37,0l-5.5-1.3c-81-16.8-138.5-81.1-138.5-155.6v-79.5h324.7v79.5
					C460.5,258.2,402.9,322.5,321.9,339.3z"/>
			</g>
		</g>
		<g>
			<g>
				<g>
					<path class="st3" d="M270.6,307c0,0,7-9.5,15-9.2c8.1,0.3,12.5,7.3,12.5,7.3s7.3-7.3,15.8-7c8.4,0,12.5,9.5,12.5,9.5
						s-8.4,17.7-29,17.7C277.6,325.4,270.6,307,270.6,307z"/>
				</g>
			</g>
			<g>
				<g>
					<path class="st5" d="M312.8,264.2c0,0-1.5,11.1-13.6,11.1c-12.1,0-14.7-11.1-14.7-11.1s6.6,7,14.3,7
						C306.5,271.2,312.8,264.2,312.8,264.2z"/>
				</g>
			</g>
			<g>
				<g>
					<g>
						<path class="st8" d="M224.5,240.2L224.5,240.2c-1.1,0-23.1-1.9-32.2-7c-1.5-0.6-1.8-2.5-1.1-3.8c0.7-1.3,2.9-1.6,4.4-1
							c8.1,4.4,29.3,6.3,29.3,6.3c1.8,0,2.9,1.6,2.9,2.9C227.4,239.2,226.3,240.2,224.5,240.2z"/>
					</g>
				</g>
				<g>
					<g>
						<path class="st8" d="M221.2,234.1c-18.7,0-29.3-13.3-29.7-13.6c-1.1-1.3-0.7-2.9,0.7-3.8c1.5-1,3.3-0.6,4.4,0.6
							c0,0,9.5,11.7,24.9,11.4l0,0c1.8,0,2.9,1.3,2.9,2.9c0,1.6-1.5,2.9-2.9,2.9C221.5,234.1,221.5,234.1,221.2,234.1z"/>
					</g>
				</g>
				<g>
					<g>
						<g>
							<path class="st8" d="M239.1,230c-1.8,7.3-10.3,11.7-18.3,9.8c-8.1-1.9-13.2-9.2-11-16.5c1.8-7.3,10.3-11.7,18.3-9.8
								C236.2,215.4,240.9,222.7,239.1,230z"/>
						</g>
					</g>
					<g>
						<g>
							<path class="st9" d="M217.5,218.5c0.1-1.9,3.3-3.4,7.1-3.2s6.9,1.8,6.8,3.7c-0.1,1.9-3.3,3.4-7.1,3.2
								S217.4,220.5,217.5,218.5z"/>
						</g>
					</g>
				</g>
			</g>
			<g>
				<g>
					<path class="st10" d="M257.1,196.8v-6.3c0-0.6-0.7-1.3-1.5-1.6c-8.1-1-49.5-5.7-69.3,4.1c-0.7,0.3-1.1,1.3-0.7,2.2l3.7,5.4
						c0.4,0.6,1.1,1,1.8,0.6c5.5-1.6,30.1-7.9,63.8-2.9C256.3,198.3,257.1,197.7,257.1,196.8z"/>
				</g>
			</g>
			<g>
				<g>
					<path class="st10" d="M342.1,196.8v-6.3c0-0.6,0.7-1.3,1.5-1.6c8.1-1,49.5-5.7,69.3,4.1c0.7,0.3,1.1,1.3,0.7,2.2l-3.7,5.4
						c-0.4,0.6-1.1,1-1.8,0.6c-5.5-1.6-30.1-7.9-63.8-2.9C343.2,198.3,342.1,197.7,342.1,196.8z"/>
				</g>
			</g>
			<g>
				<g>
					<g>
						<path class="st8" d="M374.7,240.2c-1.5,0-2.9-1-2.9-2.5s1.1-2.9,2.9-2.9c0.4,0,21.3-1.9,29.3-6.3c1.5-0.6,3.3-0.3,4.4,1
							c0.7,1.3,0.4,2.9-1.1,3.8C397.8,238.3,375.8,240.2,374.7,240.2C375.1,240.2,374.7,240.2,374.7,240.2z"/>
					</g>
				</g>
				<g>
					<g>
						<path class="st8" d="M378,234.1h-0.4c-1.8,0-2.9-1.3-2.9-2.9s1.5-2.9,2.9-2.9h0.4c15.4,0,24.6-11.4,24.9-11.4
							c1.1-1.3,2.9-1.6,4.4-0.6c1.5,1,1.8,2.5,0.7,3.8C407.3,221.2,396.7,234.1,378,234.1z"/>
					</g>
				</g>
				<g>
					<g>
						<g>
							<path class="st8" d="M360,230c1.8,7.3,10.3,11.7,18.3,9.8c8.1-1.9,13.2-9.2,11-16.5c-1.8-7.3-10.3-11.7-18.3-9.8
								C363.3,215.4,358.2,222.7,360,230z"/>
						</g>
					</g>
					<g>
						<g>
							<path class="st9" d="M374.9,215.4c3.8-0.1,7,1.3,7.1,3.2c0.1,1.9-2.9,3.6-6.8,3.7s-7-1.3-7.1-3.2
								C368,217.2,371,215.6,374.9,215.4z"/>
						</g>
					</g>
				</g>
			</g>
		</g>
		<g>
			<g>
				<path class="st0" d="M139.1,215.1c0,0,89.8-4.1,135.6-55.1c0,0,4,7.3-2.9,20c0,0,54.6-7.9,68.2-52c0,0,53.1,48.8,126.8,52V97.9
					H135l-11.4,84.3L139.1,215.1z"/>
			</g>
		</g>
	</g>
</g>
</svg>
