<?xml version="1.0" encoding="utf-8"?>
<!-- Generator: Adobe Illustrator 19.2.0, SVG Export Plug-In . SVG Version: 6.00 Build 0)  -->
<svg version="1.1" id="Layer_1" xmlns="http://www.w3.org/2000/svg" xmlns:xlink="http://www.w3.org/1999/xlink" x="0px" y="0px"
	 viewBox="0 0 595.3 841.9" style="enable-background:new 0 0 595.3 841.9;" xml:space="preserve">
<style type="text/css">
	.st0{fill:#614134;}
	.st1{fill:#F4EFED;}
	.st2{fill:#6E4D3B;}
	.st3{fill:#F9DAB4;}
	.st4{fill:#31302E;}
	.st5{fill:#EEC4A0;}
	.st6{fill:#D19865;}
	.st7{fill:#525252;}
	.st8{fill:#626161;}
	.st9{fill:#4C3626;}
	.st10{fill:#F4D4B1;}
	.st11{fill:#C75144;}
	.st12{fill:#3A332D;}
	.st13{fill:#E7DFD9;}
</style>
<g>
	<g>
		<g>
			<g>
				<path class="st0" d="M160.5,136.2c0,0-4.8,11.6-18,14c-15.3,2.7-36.7,0.6-56.1-14.8c-21.6-17-28.4-61-16.5-89.9
					c0,0,0.9,12.1,8.4,14.2c0,0,7.2-40.1,37.6-45.9c0,0-3.3,10.9-2.2,16c0,0,18-31.5,63.3-24.9c0,0-19.5,14.2-13.5,27
					c0,0,32.1-6.1,43.3,9.1c0,0-18.9,3-20.1,21.2c0,0,26.2,3,26.7,22.8L160.5,136.2z"/>
			</g>
		</g>
		<g>
			<g>
				<path class="st1" d="M156.6,142.1c0,0-9-14.8,3.6-34.9c12.7-20,22.9-21.9,41.1-18.8l-31.5,53.7
					C169.8,142.1,164.1,144.2,156.6,142.1z"/>
			</g>
		</g>
		<g>
			<g>
				<path class="st2" d="M310.9,46.7c-160,0-193.9,173.4-138.7,263.8c43,69.9,138.7,60.8,138.7,60.8s95.7,9.1,138.7-60.8
					C504.9,220.1,470.9,46.7,310.9,46.7z"/>
			</g>
		</g>
		<g>
			<g>
				<g>
					<path class="st3" d="M321.5,692.3h57c0,0-2.2,143.6-28.5,143.6C323.5,835.9,321.5,692.3,321.5,692.3z"/>
				</g>
			</g>
			<g>
				<g>
					<path class="st4" d="M349.9,809.1c-8.4,0-13.2,1.8-15.9,3.4c3.9,14,9,23.4,15.9,23.4l0,0c6.6,0,12-9.4,15.9-23.4
						C363.2,811,358.3,809.1,349.9,809.1z"/>
				</g>
			</g>
		</g>
		<g>
			<g>
				<g>
					<path class="st3" d="M243.1,692.3h57c0,0-2.2,143.6-28.5,143.6C245.6,835.9,243.1,692.3,243.1,692.3z"/>
				</g>
			</g>
			<g>
				<g>
					<path class="st4" d="M271.6,809.1c-8.4,0-13.2,1.8-15.9,3.4c3.9,14,9,23.4,15.9,23.4l0,0c6.6,0,12-9.4,15.9-23.4
						C284.9,811,280.1,809.1,271.6,809.1z"/>
				</g>
			</g>
		</g>
		<g>
			<g>
				<path class="st3" d="M433.7,500.9c0.3,9.7-26.7,61.6-27.7,63.2c0,0,7.2,2.1,10.8,5.7c3.3,3.7,7.5,10.1,6,17
					c0,0,4.5-10.1,17.7-3.4c13.2,6.6-5.7,34.3-13.8,36.5c-8,2.5-36,3.9-38.4-20.6c-2.4-24.6-5.7-42.8-5.7-42.8s24.3-49.8,24-54.6
					c-0.3-4.9-26.2-51.3-26.2-51.3l25.5-8.9C406.1,442,433.5,491.3,433.7,500.9z"/>
			</g>
		</g>
		<g>
			<g>
				<path class="st5" d="M422.6,587.2c0.9-4.3,0-7.9-1.8-11.3c-2.2,10.9-0.3,24-0.3,24C422.3,596.6,422.6,587.2,422.6,587.2z"/>
			</g>
		</g>
		<g>
			<g>
				<path class="st3" d="M218.8,444.8c0,0-3.9,101.7-26.7,116.6c-22.9,14.8-37.8,15.8-41.1,26.7c-3.3,10.9,27.1,13.4,38.2,3.9
					c0,0-27.1,40.9-16.6,48.8c10.5,7.9,23.3-21.2,23.3-21.2s-9.9,23.1-2.4,27c7.5,3.9,18.3-20.6,18.3-20.6s-5.1,19.4,0.9,21
					c9.3,2.7,22.3-26.4,22.3-26.4l5.1-171.6L218.8,444.8z"/>
			</g>
		</g>
		<g>
			<g>
				<path class="st5" d="M191.2,591.8c0,0,10.2,14,32.8,10.9C223.9,602.9,200.4,614.5,191.2,591.8z"/>
			</g>
		</g>
		<g>
			<g>
				<path class="st1" d="M240.2,649.7l-126.7-49.5c-2.6-1.2-4.2-4.3-3-7.3l33.6-87.7c1.2-2.7,4.2-4.3,7.2-3l126.7,49.5
					c2.6,1.2,4.2,4.3,3,7.3L247,646.8C246,649.5,242.8,650.9,240.2,649.7z"/>
			</g>
		</g>
		<g>
			<g>
				<rect x="253" y="360.7" class="st1" width="116.5" height="118.1"/>
			</g>
		</g>
		<g>
			<g>
				<path class="st1" d="M239.3,370.9c0,0-32.8,37-45.3,75.3c0,0,18.9,10.7,49.5,13L239.3,370.9z"/>
			</g>
		</g>
		<g>
			<g>
				<path class="st1" d="M382.7,370.9c0,0,32.8,37,45.3,75.3c0,0-18.9,10.7-49.5,13L382.7,370.9z"/>
			</g>
		</g>
		<g>
			<g>
				<path class="st6" d="M388.4,558.4H233.2c-6.6,56.4-6.6,130.6,0,186.4h155.2C396.5,687.7,396.8,613.6,388.4,558.4z"/>
			</g>
		</g>
		<g>
			<g>
				<path class="st7" d="M382.1,369.5c-1.5-3-6.6-4.9-13.5-6.4l-57,49.5l-58-49.5c-7,1.5-12,3.4-13.5,6.4
					c-9.3,18.5-6.3,188.9-6.3,188.9h77.5h77.5C388.4,558.4,391.4,388,382.1,369.5z"/>
			</g>
		</g>
		<g>
			<g>
				<path class="st8" d="M254.8,364.6l-7.2,63.5c18.3-12.5,39.6-17,63.3-15.2L254.8,364.6z"/>
			</g>
		</g>
		<g>
			<g>
				<path class="st8" d="M366.5,365l7.5,63.2c-18.5-10.7-39.6-16-62.8-15.2L366.5,365z"/>
			</g>
		</g>
	</g>
	<g>
		<g>
			<g>
				<path class="st9" d="M460.5,212.5V170c4.8,13.4,7.8,27.9,7.2,44.6C467.9,214.7,464.7,220.1,460.5,212.5z"/>
			</g>
		</g>
		<g>
			<g>
				<path class="st10" d="M189.4,218.9c0,0-19.8-12.8-41.1-2.5c-21.4,10.7-7.8,83.2,61.8,85L189.4,218.9z"/>
			</g>
		</g>
		<g>
			<g>
				<path class="st10" d="M431.9,218.9c0,0,19.8-12.8,41.1-2.5c21.4,10.7,7.8,83.2-61.8,85L431.9,218.9z"/>
			</g>
		</g>
		<g>
			<g>
				<path class="st3" d="M437,140.6l-126.1-2.5l-126.1,2.5c0,0-41.1,235.2,126.1,235.2S437,140.6,437,140.6z"/>
			</g>
		</g>
		<g>
			<g>
				<path class="st11" d="M288.1,329.7c0,0,6-9.1,12.8-8.9c7,0.3,10.8,7.3,10.8,7.3s6.3-7,13.5-7c7.2,0,10.5,9.1,10.5,9.1
					s-7.2,14-24.6,14C294.1,344.3,288.1,329.7,288.1,329.7z"/>
			</g>
		</g>
		<g>
			<g>
				<path class="st5" d="M300.2,288.7c0,0,1.2-10.7,11.4-10.9c10.2,0,12.3,10.9,12.3,10.9s-5.7-6.6-12.3-6.6
					C305.2,282,300.2,288.7,300.2,288.7z"/>
			</g>
		</g>
		<g>
			<g>
				<g>
					<path class="st12" d="M244.1,276C243.7,276,243.7,276,244.1,276c-0.9,0-19.5-1.8-27.7-6.6c-1.2-0.6-1.5-2.5-0.9-3.7
						c0.6-1.2,2.4-1.5,3.6-0.9c7,4.3,24.9,6.1,24.9,6.1c1.5,0,2.4,1.5,2.4,2.7C246.4,274.8,245.2,276,244.1,276z"/>
				</g>
			</g>
			<g>
				<g>
					<path class="st12" d="M241,270.2c-15.9,0-24.9-12.8-25.2-13c-0.9-1.2-0.6-2.7,0.6-3.7c1.2-0.9,2.6-0.6,3.6,0.6
						c0,0,7.8,10.9,21,10.9h0.3c1.5,0,2.6,1.2,2.6,2.7c0,1.5-1.2,2.7-2.6,2.7C241.2,270.2,241.2,270.2,241,270.2z"/>
				</g>
			</g>
			<g>
				<g>
					<g>
						<path class="st12" d="M231.2,259.8c1.7-7,8.6-11.3,15.6-9.5c7,1.8,11.2,8.8,9.4,15.8c-1.7,7-8.6,11.3-15.6,9.5
							C233.8,273.9,229.6,266.9,231.2,259.8z"/>
					</g>
				</g>
				<g>
					<g>
						<path class="st13" d="M237.8,254.9c0.1-1.8,2.8-3.2,6.1-3.1c3.3,0.1,6,1.7,5.9,3.6c-0.1,1.8-2.8,3.2-6.1,3.1
							C240.3,258.4,237.7,256.8,237.8,254.9z"/>
					</g>
				</g>
			</g>
		</g>
		<g>
			<g>
				<path class="st9" d="M271.6,218.2v6.4c0,0.6-0.6,1.2-1.2,1.5c-7,0.9-42.1,5.5-58.9-3.9c-0.6-0.3-0.9-1.2-0.6-2.1l3.3-5.2
					c0.3-0.6,0.9-0.9,1.8-0.6c4.8,1.5,25.5,7.6,54,2.7C270.8,216.8,271.6,217.4,271.6,218.2z"/>
			</g>
		</g>
		<g>
			<g>
				<g>
					<path class="st12" d="M383.9,276c-1.2,0-2.4-0.9-2.6-2.5c0-1.5,0.9-2.7,2.4-2.7c0.3,0,18-1.8,24.9-6.1c1.2-0.6,2.6-0.3,3.6,0.9
						c0.6,1.2,0.3,2.7-0.9,3.7C403.4,273.9,385,275.7,383.9,276C384.1,276,384.1,276,383.9,276z"/>
				</g>
			</g>
			<g>
				<g>
					<path class="st12" d="M386.9,270.2h-0.3c-1.5,0-2.6-1.2-2.6-2.7s1.2-2.7,2.6-2.7h0.3c13.2,0,21-10.9,21-10.9
						c0.9-1.2,2.4-1.5,3.6-0.6c1.2,0.9,1.5,2.5,0.6,3.7C411.8,257.4,402.8,270.2,386.9,270.2z"/>
				</g>
			</g>
			<g>
				<g>
					<g>
						<path class="st12" d="M381.1,250.3c7-1.7,13.9,2.6,15.6,9.5c1.7,7-2.6,14.1-9.4,15.8c-7,1.7-13.9-2.6-15.6-9.5
							C370,259,374.2,251.9,381.1,250.3z"/>
					</g>
				</g>
				<g>
					<g>
						<path class="st13" d="M384,252c3.3-0.1,6,1.3,6.1,3.1s-2.6,3.5-5.9,3.6s-6-1.3-6.1-3.1C378.2,253.7,380.7,252.1,384,252z"/>
					</g>
				</g>
			</g>
		</g>
		<g>
			<g>
				<path class="st9" d="M356.3,218.2v6.4c0,0.6,0.6,1.2,1.2,1.5c7,0.9,42.1,5.5,58.9-3.9c0.6-0.3,0.9-1.2,0.6-2.1l-3.3-5.2
					c-0.3-0.6-0.9-0.9-1.8-0.6c-4.8,1.5-25.5,7.6-54,2.7C357.2,216.8,356.3,217.4,356.3,218.2z"/>
			</g>
		</g>
		<g>
			<g>
				<path class="st2" d="M459,156.9c0,0,15.3,81.7-26.7,122.1c0,0,11.1-83.5-52.2-109.6c0,0-50.4,35.8-120.4,41.8
					c-69.9,6.1-72,60.1-42.6,77.7c0,0-1.8,5.7-7.2,6.6c-15.3,3-45-6.4-39-92.1l7.5-72.2l268.4-3.7L459,156.9z"/>
			</g>
		</g>
		<g>
			<g>
				<path class="st9" d="M391.1,174.8c23.7-22.8,15.3-49.2,15.3-49.2c0.6,23.7-25.8,43.6-25.8,43.6
					C384.1,170.9,387.9,172.7,391.1,174.8L391.1,174.8z"/>
			</g>
		</g>
	</g>
</g>
</svg>
