<?xml version="1.0" encoding="utf-8"?>
<!-- Generator: Adobe Illustrator 19.2.0, SVG Export Plug-In . SVG Version: 6.00 Build 0)  -->
<svg version="1.1" id="Layer_1" xmlns="http://www.w3.org/2000/svg" xmlns:xlink="http://www.w3.org/1999/xlink" x="0px" y="0px"
	 viewBox="0 0 595.3 841.9" style="enable-background:new 0 0 595.3 841.9;" xml:space="preserve">
<style type="text/css">
	.st0{fill:#EA9727;}
	.st1{fill:#805833;}
	.st2{fill:#525252;}
	.st3{fill:#4C3626;}
	.st4{fill:#F9DAB4;}
	.st5{fill:#EEC4A0;}
	.st6{fill:#F4EFED;}
	.st7{fill:#E2DCD9;}
	.st8{fill:#F4D4B1;}
	.st9{fill:#C75144;}
	.st10{fill:#3A332D;}
	.st11{fill:#E08B22;}
</style>
<g>
	<g>
		<g>
			<g>
				<path class="st0" d="M282.2,75c0,0-57-20.4-15.2-60.7c0,0-5.5,13.1,11,17.2c0,0,4.6-24.8,35-26.6c0,0-7.8,16.9-1.8,23.4
					c0,0,8.7-14.3,35.9-12c0,0-19.3,7.9-12.4,21c0,0,6.4-8.8,26.2-5.5c0,0-18.4,8.8-17.5,19c0,0,13.8-1.5,17.5-3.2
					c0,0-7.8,25.4-46.5,28.9L282.2,75z"/>
			</g>
		</g>
		<g>
			<g>
				<path class="st1" d="M272.1,80c0,0-3.7-6.7,12.4-7c16.1-0.3,38.2,1.5,36.8,9.3c-1.8,8.2-13.3,7.6-13.3,7.6L272.1,80z"/>
			</g>
		</g>
		<g>
			<g>
				<path class="st0" d="M74.3,484.1c0,0,47.8-14.9,39.1-78s-71.7-184-39.1-236.2s77.3-90.8,174.8-90.8c97,0,184.4,38.5,142.1,166.4
					s63,152.7,63,152.7s-14.7,1.8-24.4,0c0,0,142.1,139.9,0,226.3c-142.1,86.1-281.5-11.1-286.1-21.3c0,0,29,0,45.1-22.5
					c0,0-59.3,2.3-68.1-23.1c0,0,36.3-12.3,34-56.9C154.3,500.1,108.3,517.4,74.3,484.1z"/>
			</g>
		</g>
		<g>
			<g>
				<polygon class="st2" points="143.8,826 209.1,826 250,619.6 289.6,826 355.3,826 350.3,553.3 148.4,553.3 				"/>
			</g>
		</g>
		<g>
			<g>
				<path class="st3" d="M304.7,810.8c-16.1,10.5-24.8,21.9,2.3,23.9c24.8,2,93.4,9.9,76.3-11.4c-16.6-20.4-35.4-21.9-46-21.9
					C326.4,801.5,313,805.3,304.7,810.8z"/>
			</g>
		</g>
		<g>
			<g>
				<path class="st3" d="M194.4,810.8c16.1,10.5,24.8,21.9-2.3,23.9c-24.8,2-93.4,9.9-76.3-11.4c16.6-20.4,35.4-21.9,46-21.9
					C172.3,801.5,185.6,805.3,194.4,810.8z"/>
			</g>
		</g>
		<g>
			<g>
				<g>
					<g>
						<path class="st4" d="M115.2,541.9c0,0-7.4,25.1,3.2,40c10.6,14.9,21.6,23.7,34,20.7c12.4-2.9-7.4-18.4-8.7-19.6
							c0,0,6,1.8,7.8-0.9c1.8-2.3,3.7-23.1-1.8-34.7L115.2,541.9z"/>
					</g>
				</g>
				<g>
					<g>
						<path class="st5" d="M148.4,587.2c-2.3-2-4.1-3.8-4.6-4.1c0,0-6-1.2-8.7-8.5C135.5,574.6,131.8,585.4,148.4,587.2z"/>
					</g>
				</g>
				<g>
					<g>
						<path class="st4" d="M383.4,541.9c0,0,7.4,25.1-3.2,40c-10.6,14.9-21.6,23.7-34,20.7c-12.4-2.9,7.4-18.4,8.7-19.6
							c0,0-6,1.8-7.8-0.9c-1.8-2.3-3.7-23.1,1.8-34.7L383.4,541.9z"/>
					</g>
				</g>
				<g>
					<g>
						<path class="st5" d="M350.3,587.2c2.3-2,4.1-3.8,4.6-4.1c0,0,6-1.2,8.7-8.5C363.1,574.6,366.8,585.4,350.3,587.2z"/>
					</g>
				</g>
				<g>
					<g>
						<path class="st6" d="M399,536.1c-15.2-161.2-85.5-190.7-85.5-190.7h-64.4l0,0h-64.4c0,0-71.7,47.9-85.5,190.7
							c0,0,21.6,12.6,50.6,11.4l-1.4,5.8c0,0,49.2,3.8,100.7,3.8l0,0l0,0l0,0l0,0c51.5,0,100.7-3.8,100.7-3.8l-1.4-5.8
							C377.4,548.6,399,536.1,399,536.1z"/>
					</g>
				</g>
				<g>
					<g>
						<path class="st7" d="M362.2,547.2c-4.1,0.3-8.7,0.6-13.3,0.3c0,0-17.5-127.6-24.4-150.7C324.1,396.8,354.4,502.2,362.2,547.2z
							"/>
					</g>
				</g>
				<g>
					<g>
						<path class="st7" d="M136.4,547.2c4.1,0.3,8.7,0.6,13.3,0.3c0,0,17.5-127.6,24.4-150.7C174.1,396.8,144.2,502.2,136.4,547.2z"
							/>
					</g>
				</g>
			</g>
			<g>
				<g>
					<path class="st1" d="M259.2,381.6h-20.7c-3.2,0-5.5-1.5-5.5-3.5V372c0-2,2.3-3.5,5.5-3.5h20.7c3.2,0,5.5,1.5,5.5,3.5v6.1
						C264.7,379.8,262.4,381.6,259.2,381.6z"/>
				</g>
			</g>
			<g>
				<g>
					<polygon class="st1" points="242.2,374.9 256.4,374.9 267.9,493.1 249.1,510.9 229.8,492.5 					"/>
				</g>
			</g>
			<g>
				<g>
					<polygon class="st7" points="216.4,386.6 249.1,366.4 281.3,386.6 314.9,345.4 185.2,345.4 					"/>
				</g>
			</g>
		</g>
	</g>
	<g>
		<g>
			<g>
				<path class="st8" d="M360.4,254.9c0,0,21.2-16.6,41.4-6.7c20.2,9.9-4.6,58.4-64.4,58.7L360.4,254.9z"/>
			</g>
		</g>
		<g>
			<g>
				<path class="st8" d="M136.9,254.9c0,0-21.2-16.6-41.4-6.7c-20.2,9.9,4.6,58.4,64.4,58.7L136.9,254.9z"/>
			</g>
		</g>
		<g>
			<g>
				<path class="st4" d="M384.3,216.3c0,82.1-60.7,148.3-135.2,148.3c-75,0-135.2-66.6-135.2-148.3c0-38.5,59.8-59,123.3-61.3
					c37.3-1.5,84.6-11.1,112.7-0.3C375.6,165.2,384.3,195.3,384.3,216.3z"/>
			</g>
		</g>
		<g>
			<g>
				<path class="st9" d="M215.5,319.4c0,0,9.2-8.8,19.8-8.5s16.6,7,16.6,7s9.7-6.7,20.7-6.7c11.5,0,16.1,8.8,16.1,8.8
					s-11,16.6-37.7,16.6C224.7,336.6,215.5,319.4,215.5,319.4z"/>
			</g>
		</g>
		<g>
			<g>
				<path class="st10" d="M153,257.5c-2.3,0-4.1-1.2-4.1-2.6c0-6.7,5.5-19.9,26.2-20.1c20.2-0.6,29.9,10.2,31.7,16.1
					c0.5,1.5-0.9,2.6-3.2,3.2c-2.3,0.3-4.1-0.6-5.1-2c0-0.6-4.6-12-22.5-12c-0.5,0-0.5,0-0.9,0c-18.4,0.3-18.4,14.6-18.4,15.2
					C157.1,256.3,155.3,257.5,153,257.5L153,257.5z"/>
			</g>
		</g>
		<g>
			<g>
				<path class="st11" d="M135,224.2c0,0,58-5.8,78.6,0l-17.5-11.4C196.2,212.8,144.2,212.8,135,224.2z"/>
			</g>
		</g>
		<g>
			<g>
				<path class="st11" d="M367.3,224.2c0,0-58-5.8-78.6,0l17.5-11.4C306.6,212.8,358.5,212.8,367.3,224.2z"/>
			</g>
		</g>
		<g>
			<g>
				<path class="st10" d="M146.1,257.5c-4.6,0-10.6-0.3-17.5-2c-2.3-0.6-3.2-2-2.3-3.2c0.9-1.5,3.2-2,5.1-1.5
					c12.4,2.6,20.7,1.5,20.7,1.2c2.3-0.3,4.6,0.3,5.1,1.8c0.5,1.5-0.5,2.6-2.8,3.2C153.9,256.9,151.1,257.5,146.1,257.5z"/>
			</g>
		</g>
		<g>
			<g>
				<path class="st10" d="M153.4,252.2c-12,0-25.3-7-26.2-7.3c-1.8-0.9-1.8-2.6-0.5-3.5c1.4-1.2,4.1-1.2,5.5-0.3l0,0
					c3.2,1.8,13.8,6.1,21.2,6.1c2.3,0,4.1,1.2,4.1,2.6C158,251.1,156.2,252.2,153.4,252.2C153.9,252.2,153.9,252.2,153.4,252.2z"/>
			</g>
		</g>
		<g>
			<g>
				<path class="st10" d="M344.3,257.5L344.3,257.5c-2.3,0-4.1-1.2-4.1-2.6c0-0.6,0-14.9-18.4-15.2c-18.9-0.3-23.5,11.4-23.5,12
					c-0.5,1.5-2.8,2.3-5.1,2c-2.3-0.3-3.7-1.8-3.2-3.2c1.8-5.8,11.5-16.4,31.7-16.1c20.7,0.6,26.2,13.4,26.2,20.1
					C348.4,256.3,346.6,257.5,344.3,257.5z"/>
			</g>
		</g>
		<g>
			<g>
				<path class="st10" d="M351.2,257.5c-5.1,0-7.8-0.6-7.8-0.6c-2.3-0.3-3.2-1.8-2.8-3.2c0.5-1.5,2.8-2,5.1-1.8
					c0,0,8.3,1.5,20.7-1.5c2.3-0.6,4.6,0.3,5.1,1.5c0.9,1.5-0.5,2.9-2.3,3.2C361.3,257.2,355.3,257.5,351.2,257.5z"/>
			</g>
		</g>
		<g>
			<g>
				<path class="st10" d="M343.8,252.2C343.8,252.2,343.4,252.2,343.8,252.2c-2.8,0-4.1-1.2-4.1-2.6c0-1.5,1.8-2.6,4.1-2.6
					c0,0,0,0,0.5,0c7.4,0,17.5-4.4,20.7-6.1c1.8-0.9,4.1-0.9,5.5,0.3c1.4,1.2,1.4,2.6-0.5,3.5C369.1,244.9,355.8,252.2,343.8,252.2z
					"/>
			</g>
		</g>
		<g>
			<g>
				<path class="st11" d="M353.5,165.2c12,13.4,27.1,53.4,20.7,82.3c5.1-1.8,10.6-2.9,17-2.3c36.3-109.2-22.5-153-100.7-163.5
					L215.1,124l-5.5,43.2C209.1,167.3,341.1,150.9,353.5,165.2z"/>
			</g>
		</g>
		<g>
			<g>
				<path class="st0" d="M108.8,244.6c0,0,162.4-32.7,180.8-162.9l-176.2,76.5L108.8,244.6z"/>
			</g>
		</g>
	</g>
</g>
</svg>
