<?xml version="1.0" encoding="utf-8"?>
<!-- Generator: Adobe Illustrator 19.2.0, SVG Export Plug-In . SVG Version: 6.00 Build 0)  -->
<svg version="1.1" id="Layer_1" xmlns="http://www.w3.org/2000/svg" xmlns:xlink="http://www.w3.org/1999/xlink" x="0px" y="0px"
	 viewBox="0 0 595.3 841.9" style="enable-background:new 0 0 595.3 841.9;" xml:space="preserve">
<style type="text/css">
	.st0{fill:#383736;}
	.st1{fill:#573B29;}
	.st2{fill:#F4EFED;}
	.st3{fill:#3A332D;}
	.st4{fill:#F9DAB4;}
	.st5{fill:#E2DCD9;}
	.st6{fill:#403E3E;}
	.st7{fill:#4D4640;}
	.st8{fill:#F4D4B1;}
	.st9{fill:#E7DFD9;}
	.st10{fill:#EEC4A0;}
	.st11{fill:#4A2121;}
	.st12{fill:#C75144;}
</style>
<g>
	<g>
		<g>
			<g>
				<polygon class="st0" points="381.3,820.7 315.7,820.7 299.9,654 282.3,820.7 216.5,820.7 216.5,596.6 381.3,596.6 				"/>
			</g>
		</g>
		<g>
			<g>
				<path class="st1" d="M267.1,798.3c16.2,15.6,24.8,31.9-2.4,35.1c-24.8,2.9-93.9,14.4-76.6-16.6c16.5-30,35.6-32.2,46.2-32.2
					C245.4,784.9,258.9,790.3,267.1,798.3z"/>
			</g>
		</g>
		<g>
			<g>
				<path class="st1" d="M330.9,798.3c-16.2,15.6-24.8,31.9,2.4,35.1c24.8,2.9,93.9,14.4,76.6-16.6c-16.5-30-35.6-32.2-46.2-32.2
					C353.1,784.6,339.6,790.3,330.9,798.3z"/>
			</g>
		</g>
		<g>
			<g>
				<rect x="250.2" y="396.7" class="st2" width="98.3" height="205"/>
			</g>
		</g>
		<g>
			<g>
				<rect x="288.6" y="400.9" class="st3" width="18.9" height="20.4"/>
			</g>
		</g>
		<g>
			<g>
				<polygon class="st3" points="292.3,419.4 271.7,566.5 300.6,596.6 327.8,565.6 303,419.4 				"/>
			</g>
		</g>
		<g>
			<g>
				<path class="st4" d="M156,562.4c0,0-7.6,16.6-18.9,34.8c-11.4,17.9-22.4,36.1-14.5,40.5c7.9,4.5,22.8-17.9,22.8-17.9
					s-11.4,31.9,3.5,33.8c14.8,1.9,21.1-26.5,21.1-26.5s-3.1,31,12.4,31.9c15.6,1,9-35.4,9-35.4s9.7,18.2,22,10.5
					c12.4-7.7-18-28.1-12.8-49.2L156,562.4z"/>
			</g>
		</g>
		<g>
			<g>
				<path class="st0" d="M248.6,399.3c0,0-83.5,27.1-102.5,169.8c0,0,24.5,18.2,58.3,19.8c0,0,13.8-38.3,29.3-43.1L262,400.9
					L248.6,399.3z"/>
			</g>
		</g>
		<g>
			<g>
				<polygon class="st5" points="297.5,402.8 278.5,424.5 264.7,399.3 				"/>
			</g>
		</g>
		<g>
			<g>
				<path class="st6" d="M254.4,390.6c0,0-44.5,49.2-39.3,206.9c0,0,15.2,7.7,37.2,3.5c0,0,6.6-129,22-210.4H254.4L254.4,390.6z"/>
			</g>
		</g>
		<g>
			<g>
				<path class="st4" d="M441.7,562.4c0,0,7.6,16.6,18.9,34.8c11.4,17.9,22.4,36.1,14.5,40.5c-7.9,4.5-22.8-17.9-22.8-17.9
					s11.4,31.9-3.5,33.8c-14.8,1.9-21.1-26.5-21.1-26.5s3.1,31-12.4,31.9c-15.6,1-9-35.4-9-35.4s-9.7,18.2-22,10.5
					c-12.4-7.7,18-28.1,12.8-49.2L441.7,562.4z"/>
			</g>
		</g>
		<g>
			<g>
				<path class="st0" d="M349.3,399.3c0,0,83.5,27.1,102.5,169.8c0,0-24.5,18.2-58.3,19.8c0,0-13.8-38.3-29.3-43.1l-28.3-144.9
					L349.3,399.3z"/>
			</g>
		</g>
		<g>
			<g>
				<polygon class="st5" points="300.3,402.8 319.2,424.5 333,399.3 				"/>
			</g>
		</g>
		<g>
			<g>
				<path class="st6" d="M343.4,390.6c0,0,44.5,49.2,39.3,206.9c0,0-15.2,7.7-37.2,3.5c0,0-6.6-129-22-210.4H343.4L343.4,390.6z"/>
			</g>
		</g>
	</g>
	<g>
		<g>
			<g>
				<path class="st7" d="M123,233.3c0,0-12.8-45-4.2-82.4s11.4-30,10.7-46.3c0,0,7.3,4.2,7.3,8.9c0,0,22-61.6,76.3-74.4
					c0,0-4.4,8.6-3.1,16.6c0,0,49.7-58.1,155.5-46.3c0,0-12.8,13.4-9,20.1c0,0,48.6-6.7,66.6,7c0,0-13.1,9.9-12.4,16.3
					c0,0,38.7-1.9,63.1,37c0,0-14.5,9.9-12.8,17.9c0,0,21.8,7.3,27.3,27.1c0,0-22,19.2-22.8,46c-0.7,26.5-9.3,53-10.7,54.6
					L123,233.3z"/>
			</g>
		</g>
		<g>
			<g>
				<path class="st3" d="M266.4,181.2c0,0-1.4-70.6,59-82c0,0-14.5,22.7-12.8,28.4c0,0,24.5-25.5,65.2-13.7c0,0-18.7,4.2-19.6,13.4
					c0,0,52.1-7.3,55.5,58.4C414.1,186,308.6,225,266.4,181.2z"/>
			</g>
		</g>
		<g>
			<g>
				<path class="st8" d="M153.3,233.6c0,0-31-16.9-43.5,0c-12.8,16.9,11,47.9,43.5,60V233.6z"/>
			</g>
		</g>
		<g>
			<g>
				<path class="st8" d="M427.2,233.6c0,0,31-16.9,43.5,0c12.8,16.9-11,47.9-43.5,60V233.6z"/>
			</g>
		</g>
		<g>
			<g>
				<path class="st4" d="M449.2,292.6c-8.3-15.6-15.6-19.5-15.6-60.7c0-41.5-21.8-59.4-21.8-59.4c-51-34.8-122.1,13.7-122.1,13.7
					s-71.4-48.5-122.1-13.7c0,0-21.8,18.2-21.8,59.4c0,41.5-6.9,45-15.6,60.7C122.3,308.3,113.6,406,289.9,406
					C466.2,405.6,457.6,308,449.2,292.6z"/>
			</g>
		</g>
		<g>
			<g>
				<g>
					<ellipse class="st3" cx="210.9" cy="272.8" rx="17.2" ry="16"/>
				</g>
			</g>
			<g>
				<g>
					<path class="st9" d="M207.3,259.9c4.3-0.8,8.2,0.4,8.6,2.6c0.5,2.2-2.6,4.7-6.9,5.5c-4.3,0.8-8.2-0.4-8.6-2.6
						C199.9,263.2,203,260.7,207.3,259.9z"/>
				</g>
			</g>
		</g>
		<g>
			<g>
				<polygon class="st3" points="176.7,223 176.7,239 243.7,235.8 243.7,217.9 				"/>
			</g>
		</g>
		<g>
			<g>
				<g>
					<ellipse class="st3" cx="363.7" cy="272.8" rx="17.2" ry="16"/>
				</g>
			</g>
			<g>
				<g>
					<path class="st9" d="M360.5,259.9c4.3-0.8,8.2,0.4,8.6,2.6c0.4,2.2-2.6,4.7-6.9,5.5c-4.3,0.8-8.2-0.4-8.6-2.6
						S356.2,260.7,360.5,259.9z"/>
				</g>
			</g>
		</g>
		<g>
			<g>
				<polygon class="st3" points="397.5,223 397.5,239 330.6,235.8 330.6,217.9 				"/>
			</g>
		</g>
		<g>
			<g>
				<path class="st10" d="M271,321.4c0,0,1.4-20.8,18.9-22.3c18-1.6,26.6,19.8,26.6,19.8s-12.1-14.7-25.9-13.4
					C277.2,307,271,321.4,271,321.4z"/>
			</g>
		</g>
		<g>
			<g>
				<path class="st11" d="M236.1,345c0,0,101.8,9.9,129.3-25.2c0,0,9.3,66.1-104.5,54C261.3,373.7,262.7,359.4,236.1,345z"/>
			</g>
		</g>
		<g>
			<g>
				<path class="st12" d="M342.3,363.2c-14.8-6.7-28.3-7.7-45.5-7c-20.7,1-23.8,9.9-22,18.5C307.8,376.6,328.9,371.2,342.3,363.2z"
					/>
			</g>
		</g>
	</g>
</g>
</svg>
