<?xml version="1.0" encoding="utf-8"?>
<!-- Generator: Adobe Illustrator 19.2.0, SVG Export Plug-In . SVG Version: 6.00 Build 0)  -->
<svg version="1.1" id="Layer_1" xmlns="http://www.w3.org/2000/svg" xmlns:xlink="http://www.w3.org/1999/xlink" x="0px" y="0px"
	 viewBox="0 0 595.3 841.9" style="enable-background:new 0 0 595.3 841.9;" xml:space="preserve">
<style type="text/css">
	.st0{fill:#F9DAB4;}
	.st1{fill:#EEC4A0;}
	.st2{fill:#3A3C3D;}
	.st3{fill:#573B29;}
	.st4{fill:#F4EFED;}
	.st5{fill:#E2DCD9;}
	.st6{fill:#C75144;}
	.st7{fill:#AE3F3C;}
	.st8{fill:#D19865;}
	.st9{fill:#BA8156;}
	.st10{fill:#6E4D3B;}
	.st11{fill:#F4D4B1;}
	.st12{fill:#4C3626;}
	.st13{fill:#3A332D;}
</style>
<g>
	<g>
		<g>
			<g>
				<path class="st0" d="M129.9,505.7c0,0-10.4,32.6,1.3,57.2c11.8,24.7,23.9,38.9,38,34.1c14.1-4.7-8.4-30.3-9.4-32.2
					c0,0,6.4,3.2,8.7-1.3c2.4-4.1,2.7-25.9-3.4-45.5L129.9,505.7z"/>
			</g>
		</g>
		<g>
			<g>
				<path class="st1" d="M164.9,571.5c-2.7-3.5-4.7-6-5-6.6c0,0-6.7-2.2-9.4-13.9C150.1,550.9,146.1,568.9,164.9,571.5z"/>
			</g>
		</g>
		<g>
			<g>
				<polygon class="st2" points="340.4,545.9 166.2,545.9 162.9,804.4 232.5,804.4 242.9,611.3 263.4,611.3 279.2,804.4 
					348.8,804.4 				"/>
			</g>
		</g>
		<g>
			<g>
				<path class="st3" d="M344.8,831.9H288c-7.4,0-13.1-5.7-13.1-12.3v-0.9c0-21.5,18.5-38.6,41-38.6h0.7c22.9,0,41,17.4,41,38.6v0.9
					C357.9,826.5,352.2,831.9,344.8,831.9z"/>
			</g>
		</g>
		<g>
			<g>
				<path class="st3" d="M166.9,831.9h56.8c7.4,0,13.1-5.7,13.1-12.3v-0.9c0-21.5-18.5-38.6-41-38.6h-0.7c-22.9,0-41,17.4-41,38.6
					v0.9C153.8,826.5,159.8,831.9,166.9,831.9z"/>
			</g>
		</g>
		<g>
			<g>
				<path class="st0" d="M447.7,391c0,0,13.1-2.8,19.2-8.5c6.1-5.7,7.7-16.1,17.1-14.2c9.1,1.9,11.8,19.3-3,27.8
					c0,0,37.7-2.2,38.3,8.5c0.7,10.7-26.6,12-26.6,12s22.2,0.3,22.2,11.1c0,10.7-21.9,10.4-21.9,10.4s18.2,2.5,18.2,11.4
					c-0.3,8.8-17.5,9.2-29.9,9.5c-12.8,0.3-29.6-1.9-36.7-11.4C444,448.2,424.5,416,447.7,391z"/>
			</g>
		</g>
		<g>
			<g>
				<path class="st1" d="M486.7,396c-3.7,0-6.1,0.3-6.1,0.3s6.4,2.2-0.7,44.6C480,440.9,491.4,419.4,486.7,396z"/>
			</g>
		</g>
		<g>
			<g>
				<path class="st4" d="M302.4,318.3c0,0,47.4,21.8,64.9,72.7c0,0,47.7-5.1,80.4,0c0,0-7.7,44.9-3.7,57.2c0,0-89.1,4.4-120.4,8.5
					L302.4,318.3z"/>
			</g>
		</g>
		<g>
			<g>
				<path class="st4" d="M194.1,319.9c0,0-42,5.1-65.2,188.7l36.7,10.4L194.1,319.9z"/>
			</g>
		</g>
		<g>
			<g>
				<rect x="194.1" y="309.1" class="st4" width="108.6" height="138.4"/>
			</g>
		</g>
		<g>
			<g>
				<g>
					<ellipse class="st5" cx="248.9" cy="377.1" rx="5.7" ry="5.4"/>
				</g>
			</g>
			<g>
				<g>
					<ellipse class="st5" cx="248.9" cy="416.9" rx="5.7" ry="5.4"/>
				</g>
			</g>
			<g>
				<g>
					<ellipse class="st5" cx="248.9" cy="456.7" rx="5.7" ry="5.4"/>
				</g>
			</g>
		</g>
		<g>
			<g>
				<path class="st6" d="M248.9,342.6v6l-37,9.2c-4,0.9-8.4-1.9-8.4-6v-14.2c0-4.1,4.4-7.3,8.4-6L248.9,342.6z"/>
			</g>
		</g>
		<g>
			<g>
				<path class="st6" d="M248.9,342.6v6l37,9.2c4,0.9,8.4-1.9,8.4-6v-14.2c0-4.1-4.4-7.3-8.4-6L248.9,342.6z"/>
			</g>
		</g>
		<g>
			<g>
				<path class="st7" d="M253.3,355.9h-8.7c-4,0-7.4-3.2-7.4-7v-6c0-3.8,3.4-7,7.4-7h8.7c4,0,7.4,3.2,7.4,7v6
					C260.4,352.7,257.4,355.9,253.3,355.9z"/>
			</g>
		</g>
		<g>
			<g>
				<path class="st8" d="M302.1,322.7H294l-44.7,111.9l-48.1-111.9h-11.1c0,0-11.8,68.3-19.2,146.3c-2,19-4,68.6-4.4,76.8h174.2
					C340.4,545.9,329.6,374.9,302.1,322.7z"/>
			</g>
		</g>
		<g>
			<g>
				<path class="st9" d="M249.3,434.6v111.3C249.3,545.9,238.5,499.7,249.3,434.6z"/>
			</g>
		</g>
		<g>
			<g>
				<rect x="179.7" y="493.7" class="st9" width="51.1" height="10.4"/>
			</g>
		</g>
		<g>
			<g>
				<rect x="267.1" y="493.7" class="st9" width="51.1" height="10.4"/>
			</g>
		</g>
	</g>
	<g>
		<g>
			<g>
				<path class="st10" d="M105.7,214.6c0,0-28.2-40.1-6.7-91.3l9.4,5.1c0,0,8.4-82.2,90.8-108.7c0,0-11.8,13.9-10.4,21.2
					c0,0,45.4-35.7,126.1-30c0,0-16.1,7.6-16.1,14.5c0,0,65.6-7.6,102.2,36.3c0,0-14.1-1.6-19.5,0.9c0,0,47.4,24.7,51.4,87.5
					c0,0-10.4-5.1-16.1-5.1c0,0,24.9,37.3,9.1,86c0,0-4-9.5-8.4-11.1c0,0-3,44.9-23.9,52.8c0,0-5,35.4-62.5,31L105.7,214.6z"/>
			</g>
		</g>
		<g>
			<g>
				<path class="st11" d="M144,207.7c0,0-17.8-19.6-35.6-5.4c-18.5,14.5,11.8,61,40,62.6L144,207.7z"/>
			</g>
		</g>
		<g>
			<g>
				<path class="st11" d="M354.2,207.7c0,0,17.8-19.6,35.6-5.4c18.5,14.5-11.8,61-40,62.6L354.2,207.7z"/>
			</g>
		</g>
		<g>
			<g>
				<path class="st12" d="M395.2,166.9c0,0-20.5,22.1-47.4,29.7l0.7,9.5C348.5,206.1,389.8,195,395.2,166.9z"/>
			</g>
		</g>
		<g>
			<g>
				<path class="st12" d="M378.1,178.3c-57.5,35.1-61.9-16.4-61.9-16.4l0,0c42,13,79.4,5.4,79.4,5.4L378.1,178.3z"/>
			</g>
		</g>
		<g>
			<g>
				<path class="st0" d="M272.1,333.5h-45.7c-49.1,0-88.8-37.3-88.8-83.4v-86.9l223.3,16.4V250C360.9,296.2,321.2,333.5,272.1,333.5
					z"/>
			</g>
		</g>
		<g>
			<g>
				<path class="st10" d="M350.2,258.6c1.3,26.9-14.5,31.9-20.2,32.9c-25.9,4.1-22.9-12.3-80.7-12.3s-54.8,16.4-80.7,12.3
					c-5.7-0.9-21.5-6-20.2-32.9c0.7-14.9-5-20.2-10.4-21.8V250c0,46.1,39.7,83.4,88.8,83.4h22.9h22.9c49.1,0,88.8-37.3,88.8-83.4
					v-13.3C355.5,238.3,349.5,243.4,350.2,258.6z"/>
			</g>
		</g>
		<g>
			<g>
				<path class="st0" d="M249.3,300h-37.7c0,15.8,23.9,18.3,37.7,18.3s37.7-2.2,37.7-18.3H249.3z"/>
			</g>
		</g>
		<g>
			<g>
				<path class="st10" d="M128.9,156.8c0,0,54.5,57.5,131.8,66.1c0,0-46.1-24.7-58.8-52.1c0,0,52.1,33.8,99.9,35.7
					c0,0-9.1-2.5-13.4-16.8c0,0,87.1,26.5,106.9-23.1c0,0-38.3,16.4-79.4-5.4L128.9,156.8z"/>
			</g>
		</g>
		<g>
			<g>
				<path class="st1" d="M225.4,271.5c0,0,4.7-15.2,17.8-15.5c13.1-0.3,24.2,19,24.2,19s-14.5-14.9-24.5-14.9
					S225.4,271.5,225.4,271.5z"/>
			</g>
		</g>
		<g>
			<g>
				<path class="st13" d="M167.2,246.9c-1.3,0-2.7-0.9-3-2.5c-0.3-4.1,1.7-12.3,11.8-15.2c10.1-2.8,17.8,4.7,20.2,8.8
					c0.7,1.3,0.3,2.8-1,3.8c-1.3,0.6-3,0.3-4-0.9c-0.3-0.3-5.4-8.5-13.4-6.3c-8.4,2.2-7.7,9.2-7.7,9.5
					C170.6,245.3,169.3,246.5,167.2,246.9C167.6,246.9,167.6,246.9,167.2,246.9z"/>
			</g>
		</g>
		<g>
			<g>
				<polygon class="st12" points="196.8,208.3 199.5,214.9 151.4,219.7 153.5,208.9 				"/>
			</g>
		</g>
		<g>
			<g>
				<path class="st13" d="M329,246.9L329,246.9c-2,0-3-1.6-3-2.8c0-0.6,0.3-7.3-7.7-9.5c-8.4-2.2-13.4,6-13.4,6.3
					c-0.7,1.3-2.7,1.9-4,0.9c-1.3-0.6-2-2.5-1-3.8c2.7-4.4,10.1-11.7,20.2-8.8c10.1,2.8,12.1,11.1,11.8,15.2
					C332,245.9,330.7,246.9,329,246.9z"/>
			</g>
		</g>
		<g>
			<g>
				<polygon class="st12" points="299.7,208.3 297,214.9 345.1,219.7 342.8,208.9 				"/>
			</g>
		</g>
	</g>
</g>
</svg>
